<svg xmlns="http://www.w3.org/2000/svg" version="1.1" xmlns:xlink="http://www.w3.org/1999/xlink" xmlns:svgjs="http://svgjs.dev/svgjs" width="1500" height="1500" viewBox="0 0 1500 1500"><rect width="1500" height="1500" fill="#5067fc"></rect><g transform="matrix(0.6666666666666666,0,0,0.6666666666666666,249.78425655976673,249.78425655976673)"><svg viewBox="0 0 343 343" data-background-color="#5067fc" preserveAspectRatio="xMidYMid meet" height="1500" width="1500" xmlns="http://www.w3.org/2000/svg" xmlns:xlink="http://www.w3.org/1999/xlink"><g id="tight-bounds" transform="matrix(1,0,0,1,0.07400000000001228,0.07400000000001228)"><svg viewBox="0 0 342.8515585177538 342.8515585177538" height="342.8515585177538" width="342.8515585177538"><g><svg></svg></g><g><svg viewBox="0 0 342.8515585177538 342.8515585177538" height="342.8515585177538" width="342.8515585177538"><g><path d="M0 171.426c0-94.676 76.75-171.426 171.426-171.426 94.676 0 171.426 76.75 171.426 171.426 0 94.676-76.75 171.426-171.426 171.426-94.676 0-171.426-76.75-171.426-171.426zM171.426 338.821c92.45 0 167.395-74.945 167.395-167.395 0-92.45-74.945-167.395-167.395-167.396-92.45 0-167.395 74.945-167.396 167.396 0 92.45 74.945 167.395 167.396 167.395z" data-fill-palette-color="tertiary" fill="#0c0c0c" stroke="transparent"></path><ellipse rx="164.56874808852183" ry="164.56874808852183" cx="171.4257792588769" cy="171.4257792588769" fill="#0c0c0c" stroke="transparent" stroke-width="0" fill-opacity="1" data-fill-palette-color="tertiary"></ellipse></g><g transform="matrix(1,0,0,1,64.84655864529836,88.00088410133414)"><svg viewBox="0 0 213.15844122715708 166.84979031508553" height="166.84979031508553" width="213.15844122715708"><g><svg viewBox="0 0 213.15844122715708 166.84979031508553" height="166.84979031508553" width="213.15844122715708"><g><svg viewBox="0 0 213.15844122715708 166.84979031508553" height="166.84979031508553" width="213.15844122715708"><g transform="matrix(1,0,0,1,0,103.0829201344379)"><svg viewBox="0 0 213.15844122715708 63.766870180647636" height="63.766870180647636" width="213.15844122715708"><g id="textblocktransform"><svg viewBox="0 0 213.15844122715708 63.766870180647636" height="63.766870180647636" width="213.15844122715708" id="textblock"><g><svg viewBox="0 0 213.15844122715708 44.692449953828785" height="44.692449953828785" width="213.15844122715708"><g transform="matrix(1,0,0,1,0,0)"><svg width="213.15844122715708" viewBox="2.54 -33.15 203.52 42.669999999999995" height="44.692449953828785" data-palette-color="#fd0a0a"><path d="M6.15-2.44L20.53-2.44 20.53 0 3.05 0 2.54-2.39 16.43-28.91 3.3-28.91 3.3-31.35 19.63-31.35 20.02-28.71 6.15-2.44ZM29.54-30.86L29.54-30.86Q29.54-31.88 30.17-32.5 30.81-33.11 31.76-33.11L31.76-33.11Q32.76-33.11 33.36-32.54 33.96-31.98 33.96-30.91 33.96-29.83 33.36-29.27 32.76-28.71 31.76-28.71L31.76-28.71Q30.78-28.71 30.16-29.28 29.54-29.86 29.54-30.86ZM30.2-21.85L25.51-21.85 25.51-24.05 33.32-24.05 33.32-2.2 38.01-2.2 38.01 0 25.51 0 25.51-2.2 30.2-2.2 30.2-21.85ZM46.11 9.52L46.11 9.52Q44.31 9.52 42.08 8.67L42.08 8.67 42.57 6.18 42.6 6.15Q44.79 6.81 45.89 6.81L45.89 6.81Q46.26 6.81 46.58 6.73 46.89 6.64 47.16 6.43 47.43 6.23 47.64 6.03 47.85 5.83 48.07 5.44 48.29 5.05 48.43 4.79 48.58 4.52 48.76 3.99 48.95 3.47 49.06 3.17 49.16 2.88 49.36 2.26 49.56 1.64 49.65 1.34L49.65 1.34 50.31-0.63 40.42-24.05 43.77-24.05 51.68-4.05 58.15-24.05 61.47-24.05 53.02 0.39Q52.31 2.44 51.86 3.6 51.41 4.76 50.76 6.07 50.12 7.37 49.51 8.02 48.9 8.67 48.03 9.09 47.16 9.52 46.11 9.52ZM68.25-6.79L68.25-6.79Q68.25-2.25 73.53-2.25L73.53-2.25Q75.09-2.25 76.71-2.71 78.34-3.17 79.39-3.86L79.39-3.86 79.39-11.55 78.02-11.55Q76.85-11.55 75.87-11.49 74.89-11.43 73.7-11.28 72.5-11.13 71.6-10.79 70.7-10.45 69.9-9.95 69.11-9.45 68.68-8.64 68.25-7.84 68.25-6.79ZM67.33-20.58L66.72-23Q71.04-24.41 74.24-24.41L74.24-24.41Q76.04-24.41 77.48-23.91 78.92-23.41 80.06-22.35 81.19-21.29 81.82-19.45 82.44-17.6 82.44-15.06L82.44-15.06 82.44 0 80.19 0 79.7-1.61Q78.83-0.9 76.87-0.33 74.92 0.24 73.04 0.24L73.04 0.24Q69.52 0.24 67.42-1.59 65.32-3.42 65.32-6.93L65.32-6.93Q65.32-8.06 65.68-9.02 66.03-9.99 66.9-10.89 67.77-11.79 69.1-12.44 70.43-13.09 72.5-13.46 74.58-13.84 77.24-13.84L77.24-13.84 79.39-13.84 79.39-14.62Q79.36-18.63 77.98-20.24 76.6-21.85 74.09-21.85L74.09-21.85Q73.72-21.85 73.3-21.81 72.87-21.78 72.55-21.74 72.23-21.7 71.68-21.59 71.14-21.48 70.88-21.45 70.62-21.41 69.96-21.25 69.3-21.09 69.13-21.04 68.96-21 68.19-20.8 67.42-20.61 67.33-20.58L67.33-20.58ZM104.04-22.53L104.04-33.15 107.17-33.15 107.17 0 104.63 0 104.38-1.22Q101.65 0.24 98.48 0.24L98.48 0.24Q96.23 0.24 94.47-0.43 92.71-1.1 91.36-2.53 90-3.96 89.28-6.36 88.56-8.76 88.56-12.04L88.56-12.04Q88.56-14.6 89.05-16.69 89.54-18.77 90.38-20.19 91.23-21.61 92.4-22.57 93.57-23.54 94.91-23.97 96.25-24.41 97.74-24.41L97.74-24.41Q99.4-24.41 100.84-24.02 102.28-23.63 104.04-22.53L104.04-22.53ZM104.04-3.34L104.04-3.34 104.04-19.75Q102.04-20.9 100.71-21.37 99.38-21.85 98.13-21.85L98.13-21.85Q95.16-21.85 93.42-19.37 91.69-16.89 91.69-11.99L91.69-11.99Q91.69-2.34 98.92-2.34L98.92-2.34 99.6-2.34Q101.89-2.34 104.04-3.34ZM117.49-30.86L117.49-30.86Q117.49-31.88 118.13-32.5 118.76-33.11 119.71-33.11L119.71-33.11Q120.72-33.11 121.31-32.54 121.91-31.98 121.91-30.91 121.91-29.83 121.31-29.27 120.72-28.71 119.71-28.71L119.71-28.71Q118.74-28.71 118.11-29.28 117.49-29.86 117.49-30.86ZM118.15-21.85L113.46-21.85 113.46-24.05 121.28-24.05 121.28-2.2 125.96-2.2 125.96 0 113.46 0 113.46-2.2 118.15-2.2 118.15-21.85ZM138.63 0.24L138.63 0.24Q136.68 0.2 135.42-0.39 134.16-0.98 133.46-2.23 132.75-3.49 132.48-5.19 132.21-6.88 132.21-9.47L132.21-9.47 132.21-21.85 128.48-21.85 128.48-24.05 132.31-24.05 132.92-30.93 135.34-30.93 135.34-24.05 142.86-24.05 142.86-21.85 135.34-21.85 135.34-9.42Q135.34-7.08 135.59-5.62 135.85-4.15 136.45-3.45 137.05-2.76 137.7-2.55 138.36-2.34 139.46-2.34L139.46-2.34Q141.98-2.34 143.12-2.51L143.12-2.51 143.25 0Q141.29 0.24 138.63 0.24ZM151.76-24.05L151.89-21.95Q153.33-22.92 155.54-23.63 157.75-24.34 159.6-24.41L159.6-24.41 159.6-21.8Q157.48-21.8 155.29-21.15 153.11-20.51 151.91-19.63L151.91-19.63 151.91 0 148.79 0 148.79-24.05 151.76-24.05ZM180.19-2.97Q177.89 0.24 173.12 0.24 168.36 0.24 166.06-2.97 163.75-6.18 163.75-12.08L163.75-12.08Q163.75-18.26 166.01-21.34 168.27-24.41 173.12-24.41 177.98-24.41 180.24-21.34 182.5-18.26 182.5-12.08L182.5-12.08Q182.5-6.18 180.19-2.97ZM175.61-21.37Q174.54-21.85 173.12-21.85 171.71-21.85 170.63-21.37 169.56-20.9 168.85-20.07 168.14-19.24 167.69-17.99 167.24-16.75 167.06-15.31 166.87-13.87 166.87-12.08L166.87-12.08Q166.87-9.79 167.17-8.09 167.46-6.4 168.16-5.05 168.85-3.71 170.1-3.03 171.34-2.34 173.12-2.34 174.91-2.34 176.15-3.03 177.4-3.71 178.09-5.05 178.79-6.4 179.08-8.09 179.37-9.79 179.37-12.08L179.37-12.08Q179.37-13.87 179.19-15.31 179.01-16.75 178.56-17.99 178.11-19.24 177.4-20.07 176.69-20.9 175.61-21.37ZM191.68-20.07L191.68-20.07 191.68 0 188.55 0 188.55-24.05 191.12-24.05 191.33-22.49Q193.73-23.61 195.34-24.01 196.95-24.41 198.81-24.41L198.81-24.41Q202.52-24.41 204.29-22.39 206.06-20.36 206.06-16.19L206.06-16.19 206.06 0 202.93 0 202.93-16.31Q202.93-19.29 201.99-20.57 201.05-21.85 198.63-21.85L198.63-21.85Q194.92-21.85 191.68-20.07Z" opacity="1" transform="matrix(1,0,0,1,0,0)" fill="#fd0a0a" class="wordmark-text-0" data-fill-palette-color="quaternary" id="text-0"></path></svg></g></svg></g><g transform="matrix(1,0,0,1,0,55.24326476912887)"><svg viewBox="0 0 213.15844122715708 8.523605411518767" height="8.523605411518767" width="213.15844122715708"><g transform="matrix(1,0,0,1,0,0)"><svg width="213.15844122715708" viewBox="0.85 -33.15 1066.51 42.65" height="8.523605411518767" data-palette-color="#fd0a0a"><path d="M9.25-28.91L0.85-28.91 0.85-31.35 20.9-31.35 20.9-28.91 12.38-28.91 12.38 0 9.25 0 9.25-28.91ZM28.29-19.53L28.29-19.53 28.29 0 25.17 0 25.17-33.15 28.29-33.15 28.29-22.24Q32.22-24.41 35.59-24.41L35.59-24.41Q39.04-24.41 40.7-22.45 42.36-20.48 42.36-16.19L42.36-16.19 42.36 0 39.23 0 39.23-16.33Q39.23-19.29 38.38-20.57 37.52-21.85 35.4-21.85L35.4-21.85Q32.59-21.85 28.29-19.53ZM64.56-2.97Q62.25 0.24 57.49 0.24 52.73 0.24 50.42-2.97 48.12-6.18 48.12-12.08L48.12-12.08Q48.12-18.26 50.37-21.34 52.63-24.41 57.49-24.41 62.35-24.41 64.61-21.34 66.87-18.26 66.87-12.08L66.87-12.08Q66.87-6.18 64.56-2.97ZM59.98-21.37Q58.91-21.85 57.49-21.85 56.07-21.85 55-21.37 53.93-20.9 53.22-20.07 52.51-19.24 52.06-17.99 51.61-16.75 51.42-15.31 51.24-13.87 51.24-12.08L51.24-12.08Q51.24-9.79 51.53-8.09 51.83-6.4 52.52-5.05 53.22-3.71 54.46-3.03 55.71-2.34 57.49-2.34 59.27-2.34 60.52-3.03 61.76-3.71 62.46-5.05 63.15-6.4 63.45-8.09 63.74-9.79 63.74-12.08L63.74-12.08Q63.74-13.87 63.56-15.31 63.37-16.75 62.92-17.99 62.47-19.24 61.76-20.07 61.05-20.9 59.98-21.37ZM87-3.98L87-3.98 87-24.05 90.13-24.05 90.13 0 87.57 0 87.35-1.56Q85.03-0.46 83.4-0.11 81.78 0.24 79.8 0.24L79.8 0.24Q76.09 0.24 74.36-1.71 72.62-3.66 72.62-7.84L72.62-7.84 72.62-24.05 75.75-24.05 75.75-7.71Q75.75-4.79 76.71-3.56 77.68-2.34 80.12-2.34L80.12-2.34Q81.34-2.34 82.11-2.4 82.88-2.47 84.26-2.84 85.64-3.22 87-3.98ZM106.29 5.74L106.29 5.74Q110.24 5.74 112.22 4.39 114.2 3.05 114.2 1.2L114.2 1.2Q114.2-0.2 113.48-0.89 112.76-1.59 110.61-1.59L110.61-1.59 101.36-1.59Q99.57 0.1 99.57 1.93L99.57 1.93Q99.57 2.42 99.64 2.77 99.7 3.13 99.89 3.61 100.09 4.1 100.54 4.44 100.99 4.79 101.69 5.1 102.38 5.42 103.57 5.58 104.75 5.74 106.29 5.74ZM111.68-23.85L111.68-23.85 118.69-23.85 118.69-21.56 113.25-21.56Q114.52-20.61 115.2-19.21 115.88-17.82 115.88-16.46L115.88-16.46Q115.88-13.13 113.39-11.17 110.9-9.2 106.85-9.2L106.85-9.2Q104.07-9.2 101.82-10.11L101.82-10.11Q100.21-7.5 100.21-6.2L100.21-6.2Q100.21-5.62 100.41-5.07 100.6-4.52 100.8-4.27L100.8-4.27 100.97-4.03 110.22-4.03Q114.08-4.03 115.6-2.83 117.13-1.64 117.13 1L117.13 1Q117.13 2 116.82 2.95 116.52 3.91 115.74 4.9 114.96 5.88 113.76 6.63 112.56 7.37 110.6 7.84 108.63 8.3 106.14 8.3L106.14 8.3Q103.82 8.3 102.03 7.87 100.23 7.45 99.21 6.82 98.18 6.2 97.54 5.35 96.89 4.49 96.67 3.76 96.45 3.03 96.45 2.27L96.45 2.27Q96.45 0.9 97.37-0.46 98.28-1.83 99.16-2.34L99.16-2.34Q98.35-2.88 97.89-3.86 97.43-4.83 97.43-5.79L97.43-5.79Q97.43-7.08 97.99-8.23 98.55-9.38 99.94-11.35L99.94-11.35Q97.23-13.62 97.23-16.8L97.23-16.8Q97.23-20.63 99.88-22.52 102.53-24.41 106.73-24.41L106.73-24.41Q107.83-24.41 109.29-24.13 110.76-23.85 111.68-23.85ZM106.87-22.09L106.87-22.09Q103.51-22.09 101.93-20.65 100.36-19.21 100.36-16.82L100.36-16.82Q100.36-14.28 102.02-12.94 103.68-11.6 106.63-11.6L106.63-11.6Q109.76-11.6 111.39-12.84 113.03-14.09 113.03-16.55L113.03-16.55Q113.03-18.95 111.46-20.52 109.9-22.09 106.87-22.09ZM126.77-19.53L126.77-19.53 126.77 0 123.64 0 123.64-33.15 126.77-33.15 126.77-22.24Q130.7-24.41 134.07-24.41L134.07-24.41Q137.51-24.41 139.17-22.45 140.83-20.48 140.83-16.19L140.83-16.19 140.83 0 137.71 0 137.71-16.33Q137.71-19.29 136.85-20.57 136-21.85 133.87-21.85L133.87-21.85Q131.07-21.85 126.77-19.53ZM155.48 0.24L155.48 0.24Q153.53 0.2 152.27-0.39 151.01-0.98 150.3-2.23 149.59-3.49 149.33-5.19 149.06-6.88 149.06-9.47L149.06-9.47 149.06-21.85 145.32-21.85 145.32-24.05 149.15-24.05 149.77-30.93 152.18-30.93 152.18-24.05 159.7-24.05 159.7-21.85 152.18-21.85 152.18-9.42Q152.18-7.08 152.44-5.62 152.69-4.15 153.29-3.45 153.89-2.76 154.55-2.55 155.21-2.34 156.31-2.34L156.31-2.34Q158.82-2.34 159.97-2.51L159.97-2.51 160.09 0Q158.14 0.24 155.48 0.24ZM164.73-1.68L165.73-4.08Q166.95-3.39 168.89-2.87 170.83-2.34 172.61-2.34L172.61-2.34Q174.86-2.34 176.24-3.31 177.62-4.27 177.62-6.47L177.62-6.47Q177.62-8.18 176.84-9.02 176.06-9.86 174.42-10.38L174.42-10.38 170.76-11.52Q169.29-11.99 168.35-12.44 167.41-12.89 166.61-13.61 165.8-14.33 165.44-15.39 165.07-16.46 165.07-17.94L165.07-17.94Q165.07-21.22 167.32-22.81 169.56-24.41 172.98-24.41 176.4-24.41 179.47-23L179.47-23 178.55-20.65Q176.03-21.85 173.2-21.85L173.2-21.85Q170.93-21.85 169.49-20.89 168.05-19.92 168.05-17.82L168.05-17.82Q168.05-16.26 168.84-15.63 169.64-14.99 171.69-14.33L171.69-14.33 175.28-13.18Q177.25-12.55 178.36-11.8 179.47-11.06 180.07-9.8 180.67-8.54 180.67-6.62L180.67-6.62Q180.67-4.79 180.04-3.42 179.4-2.05 178.27-1.27 177.13-0.49 175.76-0.12 174.4 0.24 172.76 0.24L172.76 0.24Q168.71 0.24 164.73-1.68L164.73-1.68ZM205.96-30.86L205.96-30.86Q205.96-31.88 206.59-32.5 207.23-33.11 208.18-33.11L208.18-33.11Q209.18-33.11 209.78-32.54 210.38-31.98 210.38-30.91 210.38-29.83 209.78-29.27 209.18-28.71 208.18-28.71L208.18-28.71Q207.2-28.71 206.58-29.28 205.96-29.86 205.96-30.86ZM206.62-21.85L201.93-21.85 201.93-24.05 209.74-24.05 209.74-2.2 214.43-2.2 214.43 0 201.93 0 201.93-2.2 206.62-2.2 206.62-21.85ZM222.12-20.07L222.12-20.07 222.12 0 218.99 0 218.99-24.05 221.56-24.05 221.78-22.49Q224.17-23.61 225.78-24.01 227.39-24.41 229.25-24.41L229.25-24.41Q232.96-24.41 234.73-22.39 236.5-20.36 236.5-16.19L236.5-16.19 236.5 0 233.37 0 233.37-16.31Q233.37-19.29 232.43-20.57 231.49-21.85 229.08-21.85L229.08-21.85Q225.37-21.85 222.12-20.07ZM261.74-6.79L261.74-6.79Q261.74-2.25 267.01-2.25L267.01-2.25Q268.57-2.25 270.2-2.71 271.82-3.17 272.87-3.86L272.87-3.86 272.87-11.55 271.5-11.55Q270.33-11.55 269.35-11.49 268.38-11.43 267.18-11.28 265.99-11.13 265.08-10.79 264.18-10.45 263.39-9.95 262.59-9.45 262.16-8.64 261.74-7.84 261.74-6.79ZM260.81-20.58L260.2-23Q264.52-24.41 267.72-24.41L267.72-24.41Q269.53-24.41 270.97-23.91 272.41-23.41 273.54-22.35 274.68-21.29 275.3-19.45 275.92-17.6 275.92-15.06L275.92-15.06 275.92 0 273.68 0 273.19-1.61Q272.31-0.9 270.36-0.33 268.4 0.24 266.52 0.24L266.52 0.24Q263.01 0.24 260.91-1.59 258.81-3.42 258.81-6.93L258.81-6.93Q258.81-8.06 259.16-9.02 259.52-9.99 260.38-10.89 261.25-11.79 262.58-12.44 263.91-13.09 265.99-13.46 268.06-13.84 270.72-13.84L270.72-13.84 272.87-13.84 272.87-14.62Q272.85-18.63 271.47-20.24 270.09-21.85 267.57-21.85L267.57-21.85Q267.21-21.85 266.78-21.81 266.35-21.78 266.03-21.74 265.72-21.7 265.17-21.59 264.62-21.48 264.36-21.45 264.11-21.41 263.45-21.25 262.79-21.09 262.62-21.04 262.45-21 261.68-20.8 260.91-20.61 260.81-20.58L260.81-20.58ZM282.83-33.15L285.95-33.15 285.95-22.53Q289.01-24.41 292.59-24.41L292.59-24.41Q296.43-24.41 298.61-21.39 300.8-18.36 300.8-12.04L300.8-12.04Q300.8-5.49 298.58-2.62 296.35 0.24 291.86 0.24L291.86 0.24Q288.35 0.24 285.61-1.22L285.61-1.22 285.37 0 282.83 0 282.83-33.15ZM285.95-19.75L285.95-3.34Q288.1-2.34 290.71-2.34L290.71-2.34 291.42-2.34Q294.74-2.34 296.21-4.58 297.67-6.81 297.67-11.99L297.67-11.99Q297.67-17.07 296.37-19.46 295.06-21.85 292.2-21.85L292.2-21.85Q289.59-21.85 285.95-19.75L285.95-19.75ZM320.94-3.98L320.94-3.98 320.94-24.05 324.06-24.05 324.06 0 321.5 0 321.28-1.56Q318.96-0.46 317.34-0.11 315.71 0.24 313.73 0.24L313.73 0.24Q310.02 0.24 308.29-1.71 306.56-3.66 306.56-7.84L306.56-7.84 306.56-24.05 309.68-24.05 309.68-7.71Q309.68-4.79 310.65-3.56 311.61-2.34 314.05-2.34L314.05-2.34Q315.27-2.34 316.04-2.4 316.81-2.47 318.19-2.84 319.57-3.22 320.94-3.98ZM334.04-20.07L334.04-20.07 334.04 0 330.92 0 330.92-24.05 333.48-24.05 333.7-22.49Q336.1-23.61 337.71-24.01 339.32-24.41 341.17-24.41L341.17-24.41Q344.88-24.41 346.65-22.39 348.42-20.36 348.42-16.19L348.42-16.19 348.42 0 345.3 0 345.3-16.31Q345.3-19.29 344.36-20.57 343.42-21.85 341-21.85L341-21.85Q337.29-21.85 334.04-20.07ZM369.66-22.53L369.66-33.15 372.79-33.15 372.79 0 370.25 0 370-1.22Q367.27 0.24 364.1 0.24L364.1 0.24Q361.85 0.24 360.09-0.43 358.33-1.1 356.98-2.53 355.62-3.96 354.9-6.36 354.18-8.76 354.18-12.04L354.18-12.04Q354.18-14.6 354.67-16.69 355.16-18.77 356-20.19 356.84-21.61 358.02-22.57 359.19-23.54 360.53-23.97 361.87-24.41 363.36-24.41L363.36-24.41Q365.02-24.41 366.46-24.02 367.9-23.63 369.66-22.53L369.66-22.53ZM369.66-3.34L369.66-3.34 369.66-19.75Q367.66-20.9 366.33-21.37 365-21.85 363.75-21.85L363.75-21.85Q360.78-21.85 359.04-19.37 357.31-16.89 357.31-11.99L357.31-11.99Q357.31-2.34 364.54-2.34L364.54-2.34 365.22-2.34Q367.51-2.34 369.66-3.34ZM381.79-6.79L381.79-6.79Q381.79-2.25 387.07-2.25L387.07-2.25Q388.63-2.25 390.25-2.71 391.88-3.17 392.93-3.86L392.93-3.86 392.93-11.55 391.56-11.55Q390.39-11.55 389.41-11.49 388.43-11.43 387.24-11.28 386.04-11.13 385.14-10.79 384.23-10.45 383.44-9.95 382.65-9.45 382.22-8.64 381.79-7.84 381.79-6.79ZM380.87-20.58L380.26-23Q384.58-24.41 387.77-24.41L387.77-24.41Q389.58-24.41 391.02-23.91 392.46-23.41 393.6-22.35 394.73-21.29 395.36-19.45 395.98-17.6 395.98-15.06L395.98-15.06 395.98 0 393.73 0 393.24-1.61Q392.36-0.9 390.41-0.33 388.46 0.24 386.58 0.24L386.58 0.24Q383.06 0.24 380.96-1.59 378.86-3.42 378.86-6.93L378.86-6.93Q378.86-8.06 379.22-9.02 379.57-9.99 380.44-10.89 381.31-11.79 382.64-12.44 383.97-13.09 386.04-13.46 388.12-13.84 390.78-13.84L390.78-13.84 392.93-13.84 392.93-14.62Q392.9-18.63 391.52-20.24 390.14-21.85 387.63-21.85L387.63-21.85Q387.26-21.85 386.83-21.81 386.41-21.78 386.09-21.74 385.77-21.7 385.22-21.59 384.67-21.48 384.42-21.45 384.16-21.41 383.5-21.25 382.84-21.09 382.67-21.04 382.5-21 381.73-20.8 380.96-20.61 380.87-20.58L380.87-20.58ZM406.01-20.07L406.01-20.07 406.01 0 402.88 0 402.88-24.05 405.45-24.05 405.67-22.49Q408.06-23.61 409.67-24.01 411.28-24.41 413.14-24.41L413.14-24.41Q416.85-24.41 418.62-22.39 420.39-20.36 420.39-16.19L420.39-16.19 420.39 0 417.26 0 417.26-16.31Q417.26-19.29 416.32-20.57 415.38-21.85 412.97-21.85L412.97-21.85Q409.26-21.85 406.01-20.07ZM441.82-4.15L441.82-4.15 442.99-1.93Q440.02 0.24 435.89 0.24L435.89 0.24Q431.62 0.24 428.88-2.95 426.15-6.15 426.15-12.08L426.15-12.08Q426.15-24.41 435.62-24.41L435.62-24.41Q438.94-24.41 442.04-22.95L442.04-22.95 442.04-16.65 439.55-16.41 439.55-21.29Q437.94-21.92 435.57-21.92L435.57-21.92Q433.77-21.92 432.51-21.22 431.25-20.51 430.56-19.14 429.86-17.77 429.57-16.05 429.27-14.33 429.27-12.04L429.27-12.04Q429.27-7.37 431.17-4.83 433.06-2.29 436.23-2.29L436.23-2.29Q439.09-2.29 441.82-4.15ZM457.01-21.85L457.01-21.85Q453.93-21.85 452.29-19.71 450.66-17.58 450.37-13.65L450.37-13.65 462.74-13.65 462.74-14.87Q462.74-18.07 461.19-19.96 459.64-21.85 457.01-21.85ZM457.42-2.34L457.42-2.34Q461.18-2.34 464.26-4.3L464.26-4.3 465.21-1.83Q463.55-0.81 461.5-0.28 459.45 0.24 457.59 0.24L457.59 0.24Q452.66 0.24 449.95-2.73 447.24-5.71 447.24-12.11L447.24-12.11Q447.24-18.24 449.88-21.33 452.51-24.41 456.98-24.41L456.98-24.41Q461.01-24.41 463.33-21.78 465.65-19.14 465.65-14.75L465.65-14.75Q465.65-13.75 465.45-11.45L465.45-11.45 450.37-11.45Q450.39-9.28 450.8-7.63 451.22-5.98 451.85-4.99 452.49-4 453.43-3.39 454.37-2.78 455.32-2.56 456.27-2.34 457.42-2.34ZM511.03-24.41L511.03-24.41Q514.47-24.41 516.33-22.4 518.18-20.39 518.18-16.38L518.18-16.38 518.18 0 515.06 0 515.06-16.41Q515.06-21.85 511.13-21.85L511.13-21.85Q507.12-21.85 504.61-20.26L504.61-20.26Q504.66-19.97 504.78-18.6 504.9-17.24 504.9-16.21L504.9-16.21 504.9 0 501.78 0 501.78-16.31Q501.78-19.26 500.92-20.56 500.07-21.85 497.92-21.88L497.92-21.88 497.87-21.88Q496.55-21.88 494.72-21.45 492.89-21.02 491.2-20.09L491.2-20.09 491.2 0 488.08 0 488.08-24.05 490.96-24.05 491.08-22.51Q494.53-24.41 498.33-24.41L498.33-24.41Q502.12-24.41 503.46-22.41L503.46-22.41Q507.17-24.41 511.03-24.41ZM526.9-6.79L526.9-6.79Q526.9-2.25 532.17-2.25L532.17-2.25Q533.73-2.25 535.36-2.71 536.98-3.17 538.03-3.86L538.03-3.86 538.03-11.55 536.66-11.55Q535.49-11.55 534.51-11.49 533.54-11.43 532.34-11.28 531.14-11.13 530.24-10.79 529.34-10.45 528.54-9.95 527.75-9.45 527.32-8.64 526.9-7.84 526.9-6.79ZM525.97-20.58L525.36-23Q529.68-24.41 532.88-24.41L532.88-24.41Q534.68-24.41 536.12-23.91 537.56-23.41 538.7-22.35 539.84-21.29 540.46-19.45 541.08-17.6 541.08-15.06L541.08-15.06 541.08 0 538.83 0 538.35-1.61Q537.47-0.9 535.51-0.33 533.56 0.24 531.68 0.24L531.68 0.24Q528.17 0.24 526.07-1.59 523.97-3.42 523.97-6.93L523.97-6.93Q523.97-8.06 524.32-9.02 524.67-9.99 525.54-10.89 526.41-11.79 527.74-12.44 529.07-13.09 531.14-13.46 533.22-13.84 535.88-13.84L535.88-13.84 538.03-13.84 538.03-14.62Q538-18.63 536.62-20.24 535.25-21.85 532.73-21.85L532.73-21.85Q532.36-21.85 531.94-21.81 531.51-21.78 531.19-21.74 530.88-21.7 530.33-21.59 529.78-21.48 529.52-21.45 529.26-21.41 528.6-21.25 527.95-21.09 527.77-21.04 527.6-21 526.83-20.8 526.07-20.61 525.97-20.58L525.97-20.58ZM562.68-22.53L562.68-33.15 565.81-33.15 565.81 0 563.27 0 563.03-1.22Q560.29 0.24 557.12 0.24L557.12 0.24Q554.87 0.24 553.11-0.43 551.36-1.1 550-2.53 548.65-3.96 547.93-6.36 547.21-8.76 547.21-12.04L547.21-12.04Q547.21-14.6 547.69-16.69 548.18-18.77 549.02-20.19 549.87-21.61 551.04-22.57 552.21-23.54 553.55-23.97 554.9-24.41 556.39-24.41L556.39-24.41Q558.05-24.41 559.49-24.02 560.93-23.63 562.68-22.53L562.68-22.53ZM562.68-3.34L562.68-3.34 562.68-19.75Q560.68-20.9 559.35-21.37 558.02-21.85 556.78-21.85L556.78-21.85Q553.8-21.85 552.06-19.37 550.33-16.89 550.33-11.99L550.33-11.99Q550.33-2.34 557.56-2.34L557.56-2.34 558.24-2.34Q560.54-2.34 562.68-3.34ZM581.63-21.85L581.63-21.85Q578.55-21.85 576.92-19.71 575.28-17.58 574.99-13.65L574.99-13.65 587.36-13.65 587.36-14.87Q587.36-18.07 585.81-19.96 584.26-21.85 581.63-21.85ZM582.04-2.34L582.04-2.34Q585.8-2.34 588.88-4.3L588.88-4.3 589.83-1.83Q588.17-0.81 586.12-0.28 584.07 0.24 582.21 0.24L582.21 0.24Q577.28 0.24 574.57-2.73 571.86-5.71 571.86-12.11L571.86-12.11Q571.86-18.24 574.5-21.33 577.13-24.41 581.6-24.41L581.6-24.41Q585.63-24.41 587.95-21.78 590.27-19.14 590.27-14.75L590.27-14.75Q590.27-13.75 590.07-11.45L590.07-11.45 574.99-11.45Q575.01-9.28 575.43-7.63 575.84-5.98 576.48-4.99 577.11-4 578.05-3.39 578.99-2.78 579.94-2.56 580.89-2.34 582.04-2.34ZM620.81 0.24L620.81 0.24Q618.85 0.2 617.6-0.39 616.34-0.98 615.63-2.23 614.92-3.49 614.65-5.19 614.39-6.88 614.39-9.47L614.39-9.47 614.39-21.85 610.65-21.85 610.65-24.05 614.48-24.05 615.09-30.93 617.51-30.93 617.51-24.05 625.03-24.05 625.03-21.85 617.51-21.85 617.51-9.42Q617.51-7.08 617.77-5.62 618.02-4.15 618.62-3.45 619.22-2.76 619.88-2.55 620.54-2.34 621.64-2.34L621.64-2.34Q624.15-2.34 625.3-2.51L625.3-2.51 625.42 0Q623.47 0.24 620.81 0.24ZM646.48-2.97Q644.17 0.24 639.41 0.24 634.65 0.24 632.34-2.97 630.03-6.18 630.03-12.08L630.03-12.08Q630.03-18.26 632.29-21.34 634.55-24.41 639.41-24.41 644.27-24.41 646.52-21.34 648.78-18.26 648.78-12.08L648.78-12.08Q648.78-6.18 646.48-2.97ZM641.9-21.37Q640.82-21.85 639.41-21.85 637.99-21.85 636.92-21.37 635.84-20.9 635.14-20.07 634.43-19.24 633.98-17.99 633.52-16.75 633.34-15.31 633.16-13.87 633.16-12.08L633.16-12.08Q633.16-9.79 633.45-8.09 633.74-6.4 634.44-5.05 635.14-3.71 636.38-3.03 637.63-2.34 639.41-2.34 641.19-2.34 642.43-3.03 643.68-3.71 644.38-5.05 645.07-6.4 645.36-8.09 645.66-9.79 645.66-12.08L645.66-12.08Q645.66-13.87 645.47-15.31 645.29-16.75 644.84-17.99 644.39-19.24 643.68-20.07 642.97-20.9 641.9-21.37ZM686.25-4.15L686.25-4.15 687.42-1.93Q684.45 0.24 680.32 0.24L680.32 0.24Q676.05 0.24 673.31-2.95 670.58-6.15 670.58-12.08L670.58-12.08Q670.58-24.41 680.05-24.41L680.05-24.41Q683.37-24.41 686.47-22.95L686.47-22.95 686.47-16.65 683.98-16.41 683.98-21.29Q682.37-21.92 680-21.92L680-21.92Q678.2-21.92 676.94-21.22 675.68-20.51 674.99-19.14 674.29-17.77 674-16.05 673.7-14.33 673.7-12.04L673.7-12.04Q673.7-7.37 675.6-4.83 677.49-2.29 680.66-2.29L680.66-2.29Q683.52-2.29 686.25-4.15ZM708.11-2.97Q705.81 0.24 701.05 0.24 696.28 0.24 693.98-2.97 691.67-6.18 691.67-12.08L691.67-12.08Q691.67-18.26 693.93-21.34 696.19-24.41 701.05-24.41 705.9-24.41 708.16-21.34 710.42-18.26 710.42-12.08L710.42-12.08Q710.42-6.18 708.11-2.97ZM703.54-21.37Q702.46-21.85 701.05-21.85 699.63-21.85 698.56-21.37 697.48-20.9 696.77-20.07 696.07-19.24 695.61-17.99 695.16-16.75 694.98-15.31 694.8-13.87 694.8-12.08L694.8-12.08Q694.8-9.79 695.09-8.09 695.38-6.4 696.08-5.05 696.77-3.71 698.02-3.03 699.26-2.34 701.05-2.34 702.83-2.34 704.07-3.03 705.32-3.71 706.01-5.05 706.71-6.4 707-8.09 707.3-9.79 707.3-12.08L707.3-12.08Q707.3-13.87 707.11-15.31 706.93-16.75 706.48-17.99 706.03-19.24 705.32-20.07 704.61-20.9 703.54-21.37ZM739.42-24.41L739.42-24.41Q742.86-24.41 744.72-22.4 746.58-20.39 746.58-16.38L746.58-16.38 746.58 0 743.45 0 743.45-16.41Q743.45-21.85 739.52-21.85L739.52-21.85Q735.52-21.85 733-20.26L733-20.26Q733.05-19.97 733.17-18.6 733.29-17.24 733.29-16.21L733.29-16.21 733.29 0 730.17 0 730.17-16.31Q730.17-19.26 729.31-20.56 728.46-21.85 726.31-21.88L726.31-21.88 726.26-21.88Q724.94-21.88 723.11-21.45 721.28-21.02 719.6-20.09L719.6-20.09 719.6 0 716.47 0 716.47-24.05 719.35-24.05 719.48-22.51Q722.92-24.41 726.73-24.41L726.73-24.41Q730.51-24.41 731.85-22.41L731.85-22.41Q735.56-24.41 739.42-24.41ZM756.24-1.05L756.24-1.05 756.24 9.5 753.12 9.5 753.12-24.05 755.68-24.05 755.97-22.36Q759.12-24.41 762.88-24.41L762.88-24.41Q766.71-24.41 768.9-21.39 771.08-18.36 771.08-12.04L771.08-12.04Q771.08-5.49 768.86-2.62 766.64 0.24 762.15 0.24L762.15 0.24Q758.85 0.24 756.24-1.05ZM756.24-19.75L756.24-19.75 756.24-3.34Q758.39-2.34 761-2.34L761-2.34 761.71-2.34Q765.03-2.34 766.49-4.58 767.96-6.81 767.96-11.99L767.96-11.99Q767.96-17.07 766.65-19.46 765.35-21.85 762.49-21.85L762.49-21.85Q759.88-21.85 756.24-19.75ZM775.43-30.93L775.43-33.15 783.95-33.15 783.95-2.2 789.1-2.2 789.1 0 775.38 0 775.38-2.2 780.82-2.2 780.82-30.93 775.43-30.93ZM802.72-21.85L802.72-21.85Q799.64-21.85 798.01-19.71 796.37-17.58 796.08-13.65L796.08-13.65 808.46-13.65 808.46-14.87Q808.46-18.07 806.91-19.96 805.36-21.85 802.72-21.85ZM803.14-2.34L803.14-2.34Q806.89-2.34 809.97-4.3L809.97-4.3 810.92-1.83Q809.26-0.81 807.21-0.28 805.16 0.24 803.31 0.24L803.31 0.24Q798.37 0.24 795.66-2.73 792.95-5.71 792.95-12.11L792.95-12.11Q792.95-18.24 795.59-21.33 798.23-24.41 802.7-24.41L802.7-24.41Q806.72-24.41 809.04-21.78 811.36-19.14 811.36-14.75L811.36-14.75Q811.36-13.75 811.17-11.45L811.17-11.45 796.08-11.45Q796.1-9.28 796.52-7.63 796.93-5.98 797.57-4.99 798.2-4 799.14-3.39 800.08-2.78 801.04-2.56 801.99-2.34 803.14-2.34ZM825.37 0.24L825.37 0.24Q823.42 0.2 822.16-0.39 820.91-0.98 820.2-2.23 819.49-3.49 819.22-5.19 818.95-6.88 818.95-9.47L818.95-9.47 818.95-21.85 815.22-21.85 815.22-24.05 819.05-24.05 819.66-30.93 822.08-30.93 822.08-24.05 829.6-24.05 829.6-21.85 822.08-21.85 822.08-9.42Q822.08-7.08 822.33-5.62 822.59-4.15 823.19-3.45 823.79-2.76 824.45-2.55 825.11-2.34 826.2-2.34L826.2-2.34Q828.72-2.34 829.87-2.51L829.87-2.51 829.99 0Q828.03 0.24 825.37 0.24ZM844.37-21.85L844.37-21.85Q841.29-21.85 839.65-19.71 838.02-17.58 837.72-13.65L837.72-13.65 850.1-13.65 850.1-14.87Q850.1-18.07 848.55-19.96 847-21.85 844.37-21.85ZM844.78-2.34L844.78-2.34Q848.54-2.34 851.62-4.3L851.62-4.3 852.57-1.83Q850.91-0.81 848.86-0.28 846.81 0.24 844.95 0.24L844.95 0.24Q840.02 0.24 837.31-2.73 834.6-5.71 834.6-12.11L834.6-12.11Q834.6-18.24 837.24-21.33 839.87-24.41 844.34-24.41L844.34-24.41Q848.37-24.41 850.69-21.78 853.01-19.14 853.01-14.75L853.01-14.75Q853.01-13.75 852.81-11.45L852.81-11.45 837.72-11.45Q837.75-9.28 838.16-7.63 838.58-5.98 839.21-4.99 839.85-4 840.79-3.39 841.73-2.78 842.68-2.56 843.63-2.34 844.78-2.34ZM877.61-6.79L877.61-6.79Q877.61-2.25 882.89-2.25L882.89-2.25Q884.45-2.25 886.07-2.71 887.7-3.17 888.75-3.86L888.75-3.86 888.75-11.55 887.38-11.55Q886.21-11.55 885.23-11.49 884.25-11.43 883.06-11.28 881.86-11.13 880.96-10.79 880.05-10.45 879.26-9.95 878.47-9.45 878.04-8.64 877.61-7.84 877.61-6.79ZM876.68-20.58L876.07-23Q880.4-24.41 883.59-24.41L883.59-24.41Q885.4-24.41 886.84-23.91 888.28-23.41 889.42-22.35 890.55-21.29 891.17-19.45 891.8-17.6 891.8-15.06L891.8-15.06 891.8 0 889.55 0 889.06-1.61Q888.18-0.9 886.23-0.33 884.28 0.24 882.4 0.24L882.4 0.24Q878.88 0.24 876.78-1.59 874.68-3.42 874.68-6.93L874.68-6.93Q874.68-8.06 875.04-9.02 875.39-9.99 876.26-10.89 877.12-11.79 878.45-12.44 879.79-13.09 881.86-13.46 883.94-13.84 886.6-13.84L886.6-13.84 888.75-13.84 888.75-14.62Q888.72-18.63 887.34-20.24 885.96-21.85 883.45-21.85L883.45-21.85Q883.08-21.85 882.65-21.81 882.23-21.78 881.91-21.74 881.59-21.7 881.04-21.59 880.49-21.48 880.24-21.45 879.98-21.41 879.32-21.25 878.66-21.09 878.49-21.04 878.32-21 877.55-20.8 876.78-20.61 876.68-20.58L876.68-20.58ZM938.18-24.41L938.18-24.41Q941.62-24.41 943.48-22.4 945.33-20.39 945.33-16.38L945.33-16.38 945.33 0 942.21 0 942.21-16.41Q942.21-21.85 938.28-21.85L938.28-21.85Q934.27-21.85 931.76-20.26L931.76-20.26Q931.81-19.97 931.93-18.6 932.05-17.24 932.05-16.21L932.05-16.21 932.05 0 928.93 0 928.93-16.31Q928.93-19.26 928.07-20.56 927.22-21.85 925.07-21.88L925.07-21.88 925.02-21.88Q923.7-21.88 921.87-21.45 920.04-21.02 918.35-20.09L918.35-20.09 918.35 0 915.23 0 915.23-24.05 918.11-24.05 918.23-22.51Q921.67-24.41 925.48-24.41L925.48-24.41Q929.27-24.41 930.61-22.41L930.61-22.41Q934.32-24.41 938.18-24.41ZM955.36-30.86L955.36-30.86Q955.36-31.88 956-32.5 956.63-33.11 957.59-33.11L957.59-33.11Q958.59-33.11 959.18-32.54 959.78-31.98 959.78-30.91 959.78-29.83 959.18-29.27 958.59-28.71 957.59-28.71L957.59-28.71Q956.61-28.71 955.99-29.28 955.36-29.86 955.36-30.86ZM956.02-21.85L951.34-21.85 951.34-24.05 959.15-24.05 959.15-2.2 963.84-2.2 963.84 0 951.34 0 951.34-2.2 956.02-2.2 956.02-21.85ZM967.64-1.68L968.64-4.08Q969.86-3.39 971.8-2.87 973.75-2.34 975.53-2.34L975.53-2.34Q977.77-2.34 979.15-3.31 980.53-4.27 980.53-6.47L980.53-6.47Q980.53-8.18 979.75-9.02 978.97-9.86 977.33-10.38L977.33-10.38 973.67-11.52Q972.21-11.99 971.27-12.44 970.33-12.89 969.52-13.61 968.72-14.33 968.35-15.39 967.98-16.46 967.98-17.94L967.98-17.94Q967.98-21.22 970.23-22.81 972.48-24.41 975.89-24.41 979.31-24.41 982.39-23L982.39-23 981.46-20.65Q978.95-21.85 976.11-21.85L976.11-21.85Q973.84-21.85 972.4-20.89 970.96-19.92 970.96-17.82L970.96-17.82Q970.96-16.26 971.76-15.63 972.55-14.99 974.6-14.33L974.6-14.33 978.19-13.18Q980.17-12.55 981.28-11.8 982.39-11.06 982.99-9.8 983.58-8.54 983.58-6.62L983.58-6.62Q983.58-4.79 982.95-3.42 982.31-2.05 981.18-1.27 980.04-0.49 978.68-0.12 977.31 0.24 975.67 0.24L975.67 0.24Q971.62 0.24 967.64-1.68L967.64-1.68ZM988.1-1.68L989.1-4.08Q990.32-3.39 992.26-2.87 994.2-2.34 995.98-2.34L995.98-2.34Q998.23-2.34 999.61-3.31 1000.99-4.27 1000.99-6.47L1000.99-6.47Q1000.99-8.18 1000.21-9.02 999.43-9.86 997.79-10.38L997.79-10.38 994.13-11.52Q992.66-11.99 991.72-12.44 990.78-12.89 989.98-13.61 989.17-14.33 988.81-15.39 988.44-16.46 988.44-17.94L988.44-17.94Q988.44-21.22 990.69-22.81 992.93-24.41 996.35-24.41 999.77-24.41 1002.84-23L1002.84-23 1001.92-20.65Q999.4-21.85 996.57-21.85L996.57-21.85Q994.3-21.85 992.86-20.89 991.42-19.92 991.42-17.82L991.42-17.82Q991.42-16.26 992.21-15.63 993.01-14.99 995.06-14.33L995.06-14.33 998.64-13.18Q1000.62-12.55 1001.73-11.8 1002.84-11.06 1003.44-9.8 1004.04-8.54 1004.04-6.62L1004.04-6.62Q1004.04-4.79 1003.41-3.42 1002.77-2.05 1001.64-1.27 1000.5-0.49 999.13-0.12 997.77 0.24 996.13 0.24L996.13 0.24Q992.08 0.24 988.1-1.68L988.1-1.68ZM1012.8-30.86L1012.8-30.86Q1012.8-31.88 1013.44-32.5 1014.07-33.11 1015.02-33.11L1015.02-33.11Q1016.03-33.11 1016.62-32.54 1017.22-31.98 1017.22-30.91 1017.22-29.83 1016.62-29.27 1016.03-28.71 1015.02-28.71L1015.02-28.71Q1014.05-28.71 1013.43-29.28 1012.8-29.86 1012.8-30.86ZM1013.46-21.85L1008.77-21.85 1008.77-24.05 1016.59-24.05 1016.59-2.2 1021.27-2.2 1021.27 0 1008.77 0 1008.77-2.2 1013.46-2.2 1013.46-21.85ZM1041.5-2.97Q1039.19 0.24 1034.43 0.24 1029.67 0.24 1027.36-2.97 1025.06-6.18 1025.06-12.08L1025.06-12.08Q1025.06-18.26 1027.31-21.34 1029.57-24.41 1034.43-24.41 1039.29-24.41 1041.55-21.34 1043.81-18.26 1043.81-12.08L1043.81-12.08Q1043.81-6.18 1041.5-2.97ZM1036.92-21.37Q1035.85-21.85 1034.43-21.85 1033.01-21.85 1031.94-21.37 1030.87-20.9 1030.16-20.07 1029.45-19.24 1029-17.99 1028.55-16.75 1028.36-15.31 1028.18-13.87 1028.18-12.08L1028.18-12.08Q1028.18-9.79 1028.47-8.09 1028.77-6.4 1029.46-5.05 1030.16-3.71 1031.4-3.03 1032.65-2.34 1034.43-2.34 1036.21-2.34 1037.46-3.03 1038.7-3.71 1039.4-5.05 1040.09-6.4 1040.39-8.09 1040.68-9.79 1040.68-12.08L1040.68-12.08Q1040.68-13.87 1040.5-15.31 1040.31-16.75 1039.86-17.99 1039.41-19.24 1038.7-20.07 1038-20.9 1036.92-21.37ZM1052.98-20.07L1052.98-20.07 1052.98 0 1049.86 0 1049.86-24.05 1052.42-24.05 1052.64-22.49Q1055.03-23.61 1056.65-24.01 1058.26-24.41 1060.11-24.41L1060.11-24.41Q1063.82-24.41 1065.59-22.39 1067.36-20.36 1067.36-16.19L1067.36-16.19 1067.36 0 1064.24 0 1064.24-16.31Q1064.24-19.29 1063.3-20.57 1062.36-21.85 1059.94-21.85L1059.94-21.85Q1056.23-21.85 1052.98-20.07Z" opacity="1" transform="matrix(1,0,0,1,0,0)" fill="#fd0a0a" class="slogan-text-1" data-fill-palette-color="quaternary" id="text-1"></path></svg></g></svg></g></svg></g></svg></g><g transform="matrix(1,0,0,1,60.26170404671313,0)"><svg viewBox="0 0 92.63503313373083 92.53210531913781" height="92.53210531913781" width="92.63503313373083"><g><svg xmlns="http://www.w3.org/2000/svg" xmlns:xlink="http://www.w3.org/1999/xlink" version="1.1" x="0" y="0" viewBox="5 5 90 89.9" enable-background="new 0 0 100 100" xml:space="preserve" height="92.53210531913781" width="92.63503313373083" class="icon-icon-0" data-fill-palette-color="quaternary" id="icon-0"><path d="M50 94.9C62.8 94.9 74.3 89.6 82.4 81.1 82 81.2 81.5 81.3 81.1 81.3 79 81.3 77.3 80.2 77.3 78.7 77.3 77.3 79 76.1 81.1 76.1 83.1 76.1 84.6 77 84.9 78.4 91.2 70.6 95 60.8 95 50 95 25.2 74.8 5 50 5 34.7 5 21.2 12.7 13.1 24.3 15.8 21.5 19.9 19.6 24.6 19.6H24.9C25.3 15.5 30.7 12.2 37.4 12.2 41.2 12.2 44.6 13.2 47 14.9 49.3 13.2 52.7 12.2 56.6 12.2 63.4 12.2 69 15.7 69.1 20H69.3C76.2 20 81.8 23.5 81.8 27.9 81.8 29.1 81.4 30.2 80.7 31.2 85.2 32.4 88.2 35.2 88.2 38.4 88.2 41 86.2 43.2 83.3 44.7 83.8 45.6 84.1 46.4 84.1 47.4 84.1 51.8 78.5 55.3 71.6 55.3 70.7 55.3 69.9 55.2 69.1 55.1 68.8 56.4 68.1 57.6 66.9 58.6 70.4 58.7 73.2 60.7 73.2 63 73.2 65.5 70.3 67.5 66.6 67.5 63 67.5 60 65.5 60 63 60 62.5 60.1 62.1 60.4 61.6 59.3 61.8 58.1 61.9 56.9 61.9 51.1 61.9 46.2 59.4 44.8 56 42.6 60.4 37.5 63.4 31.4 63.4 23.3 63.2 16.8 57.8 16.8 51.1V50.8C11.8 49.8 8.2 46.8 8.2 43.3 8.2 41 9.8 38.9 12.3 37.5 11.2 35.8 10.5 33.8 10.5 31.6 10.5 30.4 10.7 29.1 11.2 28 7.1 34.5 5 41.9 5 49.9 5 74.7 25.2 94.9 50 94.9M73.9 67.8C76.9 67.8 79.4 69.4 79.4 71.4S76.9 75 73.9 75 68.4 73.4 68.4 71.4C68.5 69.4 70.9 67.8 73.9 67.8M29.9 28.3H70.1C71.7 28.3 73 27.7 73 26.9 73 26 71.7 25.5 70.1 25.5H29.9C28.3 25.5 27 26.1 27 26.9S28.3 28.3 29.9 28.3M29.9 37.8H70.1C71.7 37.8 73 37.2 73 36.4 73 35.5 71.7 35 70.1 35H29.9C28.3 35 27 35.6 27 36.4S28.3 37.8 29.9 37.8M29.9 46.5H52.2C53.8 46.5 55.1 45.6 55.1 44.7S53.8 42.9 52.2 42.9H29.9C28.3 42.9 27 43.8 27 44.7 27 45.5 28.3 46.5 29.9 46.5" fill="#fd0a0a" data-fill-palette-color="quaternary"></path></svg></g></svg></g><g></g></svg></g></svg></g></svg></g></svg></g><defs></defs></svg><rect width="342.8515585177538" height="342.8515585177538" fill="none" stroke="none" visibility="hidden"></rect></g></svg></g></svg>